<?xml version="1.0" standalone="no"?><!DOCTYPE svg PUBLIC "-//W3C//DTD SVG 1.1//EN" "http://www.w3.org/Graphics/SVG/1.1/DTD/svg11.dtd"><svg t="1625108974506" class="icon" viewBox="0 0 1024 1024" version="1.1" xmlns="http://www.w3.org/2000/svg" p-id="644" width="32" height="32" xmlns:xlink="http://www.w3.org/1999/xlink"><defs><style type="text/css"></style></defs><path d="M605.882489 511.633086L592.763692 508.453161h-32.945046A263.187015 263.187015 0 0 0 790.742947 256.196331C784.254357 108.645268 659.606474-5.832007 512.029662 0.231735A274.490552 274.490552 0 0 0 240.204067 200.219364H128.777974A14.380467 14.380467 0 0 0 113.843917 213.930374v45.497378a14.380467 14.380467 0 0 0 14.934057 13.71101h105.349477a264.886408 264.886408 0 0 0 227.177912 234.580571h-31.464514L413.812486 511.748953A444.043601 444.043601 0 0 0 113.843917 898.811401a122.304781 122.304781 0 0 0 119.498208 125.137102h547.667937a125.690693 125.690693 0 0 0 129.076604-122.304781v-3.682018c0.102994-150.21602-155.739046-348.954852-304.204177-386.328618zM359.740898 373.647544a179.981141 179.981141 0 0 1-34.129471-53.929971 168.960837 168.960837 0 0 1-11.380782-46.527314h396.524975a168.960837 168.960837 0 0 1-11.947246 46.990784 180.071261 180.071261 0 0 1-34.695935 54.20033 204.32623 204.32623 0 0 1-117.734445 61.7961 82.227436 82.227436 0 0 0-30.151347 11.033178h-10.106237a84.184312 84.184312 0 0 0-30.202844-11.380781 203.52803 203.52803 0 0 1-116.176668-62.182326z m83.604974 137.934045a275.507613 275.507613 0 0 0 69.855341 8.818818 267.049271 267.049271 0 0 0 59.723356-6.604458l31.284276 8.020619c-18.204101 16.672073-77.360993 52.668301-92.488163 66.327814-16.272973-13.942745-77.811589-50.209331-97.315984-67.061643z m337.728561 439.215781H238.556171A45.536001 45.536001 0 0 1 209.112904 939.429462a52.011718 52.011718 0 0 1-15.642138-40.669558 272.45643 272.45643 0 0 1 20.418462-97.843825 411.11143 411.11143 0 0 1 56.87816-98.976754 403.708772 403.708772 0 0 1 80.257685-78.661285 294.677278 294.677278 0 0 1 41.133029-25.078918c8.535586 5.690391 18.204101 12.05024 29.121412 19.169666 12.397843 8.072116 31.116911 20.251097 36.176467 24.345088a84.969638 84.969638 0 0 0 109.662329-1.145802c4.544588-3.978124 22.182225-15.642138 33.563007-23.431022 9.668515-6.707452 18.770565-12.681075 26.726814-18.13973a327.004363 327.004363 0 0 1 38.622562 24.56395 454.806422 454.806422 0 0 1 83.051384 81.68672 444.571443 444.571443 0 0 1 59.723356 100.508781 241.506883 241.506883 0 0 1 21.61576 92.192057 49.153648 49.153648 0 0 1-45.368636 52.655427c-1.287419 0.102994-2.664957 0.141616-4.003873 0.141616z" p-id="645" fill="#1296db"></path></svg>